# AST/ASF file generated using VICON BodyLanguage
# -----------------------------------------------
:version 1.10
:name VICON
:units
  mass 1.0
  length 0.45
  angle deg
:documentation
   .ast/.asf automatically generated from VICON data using
   VICON BodyBuilder and BodyLanguage model FoxedUp or BRILLIANT.MOD
:root
   order TX TY TZ RX RY RZ
   axis XYZ
   position 0 0 0  
   orientation 0 0 0 
:bonedata
  begin
     id 1 
     name lhipjoint
     direction 0.561001 -0.76473 0.316963 
     length 2.4722 
     axis 0 0 0  XYZ
  end
  begin
     id 2 
     name lfemur
     direction 0.34202 -0.939693 0  
     length 7.59403  
     axis 0 0 20  XYZ
    dof rx ry rz
    limits (-160.0 20.0)
           (-70.0 70.0)
           (-60.0 70.0)
  end
  begin
     id 3 
     name ltibia
     direction 0.34202 -0.939693 0   
     length 7.89655   
     axis 0 0 20   XYZ
    dof rx
    limits (-10.0 170.0)
  end
  begin
     id 4 
     name lfoot
     direction 0.061296 -0.168409 0.98381   
     length 2.73287   
     axis -90 7.62852e-016 20   XYZ
    dof rx rz
    limits (-45.0 90.0)
           (-70.0 20.0)
  end
  begin
     id 5 
     name ltoes
     direction 1.53547e-011 -4.21984e-011 1   
     length 1.37057   
     axis -90 7.62852e-016 20   XYZ
    dof rx
    limits (-90.0 20.0)
  end
  begin
     id 6 
     name rhipjoint
     direction -0.559611 -0.765599 0.317323   
     length 2.46939  
     axis 0 0 0  XYZ 
  end
  begin
     id 7 
     name rfemur
     direction -0.34202 -0.939693 0   
     length 7.53712   
     axis 0 0 -20   XYZ
    dof rx ry rz
    limits (-160.0 20.0)
           (-70.0 70.0)
           (-70.0 60.0)
  end
  begin
     id 8 
     name rtibia
     direction -0.34202 -0.939693 0   
     length 8.12549   
     axis 0 0 -20   XYZ
    dof rx
    limits (-10.0 170.0)
 end
 begin
     id 9 
     name rfoot
     direction -0.066984 -0.184037 0.980634   
     length 2.67541  
     axis -90 -7.62852e-016 -20   XYZ
    dof rx rz
    limits (-45.0 90.0)
           (-20.0 70.0)
  end
  begin
     id 10 
     name rtoes
     direction -1.53549e-011 -4.21786e-011 1   
     length 1.34085   
     axis -90 -7.62852e-016 -20   XYZ
    dof rx
    limits (-90.0 20.0)
  end
  begin
     id 11 
     name lowerback
     direction -0.0522728 0.992594 -0.109658   
     length 2.05633   
     axis 0 0 0   XYZ
    dof rx ry rz
    limits (-20.0 45.0)
           (-30.0 30.0)
           (-30.0 30.0)
  end
  begin
     id 12 
     name upperback
     direction 0.00589338 0.999977 0.00335704   
     length 2.05845   
     axis 0 0 0   XYZ
    dof rx ry rz
    limits (-20.0 45.0)
           (-30.0 30.0)
           (-30.0 30.0)
  end
  begin
     id 13 
     name thorax
     direction 0.0292928 0.998059 0.0549487   
     length 2.09281   
     axis 0 0 0   XYZ
    dof rx ry rz
    limits (-20.0 45.0)
           (-30.0 30.0)
           (-30.0 30.0)
  end
  begin
     id 14 
     name lowerneck
     direction 0.0356368 0.980775 0.191858   
     length 1.84767   
     axis 0 0 0   XYZ
    dof rx ry rz
    limits (-20.0 45.0)
           (-30.0 30.0)
           (-30.0 30.0)
  end
  begin
     id 15 
     name upperneck
     direction -0.0227605 0.98931 -0.14404   
     length 1.89582   
     axis 0 0 0   XYZ
    dof rx ry rz
    limits (-20.0 45.0)
           (-30.0 30.0)
           (-30.0 30.0)
  end
  begin
     id 16
     name head
     direction -0.00932985 0.997511 -0.0698904  
     length 1.90213  
     axis 0 0 0   XYZ
    dof rx ry rz
    limits (-20.0 45.0)
           (-30.0 30.0)
           (-30.0 30.0)
  end
  begin
     id 17 
     name lclavicle
     direction 0.873442 0.479511 0.0846686  
     length 3.41193  
     axis 0 0 0   XYZ
    dof ry rz
    limits (-20.0 10.0)
           (0.0 20.0)
  end
  begin
     id 18 
     name lhumerus
     direction 1 -4.4897e-011 -5.62117e-018   
     length 5.59864   
     axis 180 -30 -90   XYZ
    dof rx ry rz
    limits (-60.0 90.0)
           (-90.0 90.0)
           (-90.0 90.0)
  end
  begin
     id 19
     name lradius
     direction 1 -4.48966e-011 -6.26295e-027   
     length 3.59542   
     axis 180 -30 -90   XYZ
    dof rx
    limits (-10.0 170.0)
  end
  begin
     id 20
     name lwrist
     direction 1 -4.48947e-011 -1.74096e-026   
     length 1.79771   
     axis 1.04567e-014 90 90   XYZ
    dof ry
    limits (-180.0 0.0)
 end
  begin
     id 21 
     name lhand
     direction 1 -4.49085e-011 -3.48469e-026   
     length 0.572014   
     axis 2.22196e-014 90 90   XYZ
    dof rx rz
    limits (-90.0 90.0)
           (-45.0 45.0)
  end
  begin
     id 22 
     name lfingers
     direction 1 -4.48884e-011 -6.96135e-026   
     length 0.461173   
     axis 4.44383e-014 90 90   XYZ
    dof rx
    limits (0.0 90.0)
  end
  begin
     id 23
     name lthumb
     direction 0.707107 -6.34976e-011 0.707107   
     length 0.662154   
     axis -90 45 -5.4397e-014   XYZ
    dof rx rz
    limits (-45.0 45.0)
           (-45.0 45.0)
  end
  begin
     id 24 
     name rclavicle
     direction -0.890242 0.443271 0.104786   
     length 3.46753  
     axis 0 0 0   XYZ 
    dof ry rz
    limits (-10.0 20.0)
           (-20.0 0.0)
  end
  begin
     id 25 
     name rhumerus
     direction -1 -4.48963e-011 -5.41723e-018  
     length 5.8094   
     axis 180 30 90   XYZ
    dof rx ry rz
    limits (-90.0 60.0)
           (-90.0 90.0)
           (-90.0 90.0)
  end
  begin
     id 26 
     name rradius
     direction -1 -4.48958e-011 -6.51059e-027   
     length 3.66953   
     axis 180 30 90   XYZ
    dof rx
    limits (-10.0 170.0)
  end
  begin
     id 27 
     name rwrist
     direction -1 -4.48975e-011 -1.74124e-026   
     length 1.83476   
     axis 1.04567e-014 -90 -90   XYZ
    dof ry
    limits (-180.0 0.0)
  end
  begin
     id 28
     name rhand
     direction -1 -4.49013e-011 -3.48326e-026   
     length 0.57843   
     axis 2.22196e-014 -90 -90   XYZ
    dof rx rz
    limits (-90.0 90.0)
           (-45.0 45.0)
  end
  begin
     id 29
     name rfingers
     direction -1 -4.49023e-011 -6.9669e-026   
     length 0.466345   
     axis 4.44383e-014 -90 -90   XYZ
    dof rx
    limits (0.0 90.0)
  end
  begin
     id 30
     name rthumb
     direction -0.707107 -6.34926e-011 0.707107   
     length 0.669581   
     axis -90 -45 5.4397e-014   XYZ
    dof rx rz
    limits (-45.0 45.0)
           (-45.0 45.0)
  end
:hierarchy
  begin
    root lhipjoint rhipjoint lowerback
    lhipjoint lfemur
    lfemur ltibia
    ltibia lfoot
    lfoot ltoes
    rhipjoint rfemur
    rfemur rtibia
    rtibia rfoot
    rfoot rtoes
    lowerback upperback
    upperback thorax
    thorax lowerneck lclavicle rclavicle
    lowerneck upperneck
    upperneck head
    lclavicle lhumerus
    lhumerus lradius
    lradius lwrist
    lwrist lhand lthumb
    lhand lfingers
    rclavicle rhumerus
    rhumerus rradius
    rradius rwrist
    rwrist rhand rthumb
    rhand rfingers
  end

#!OML:ASF H:\SkateBoarding\Project 1\Capture day 1\Session 1\Skater.ASF
:FULLY-SPECIFIED
:DEGREES
410
root 4.6047 19.0121 37.9137 -4.98878 58.3794 -10.6201
lowerback 9.1977 -2.95233 -3.74869
upperback -2.51594 -4.45853 -0.840702
thorax -7.60353 -2.01921 1.90216
lowerneck -17.1672 -4.25624 -3.18448
upperneck 25.5722 -6.23822 4.52582
head 11.4147 -2.50351 1.27904
rclavicle -1.09779e-013 -1.74931e-014
rhumerus -38.8363 22.7348 -91.4988
rradius 62.8123
rwrist -7.1654
rhand -39.3853 9.32168
rfingers 7.12502
rthumb -12.3751 -20.292
lclavicle -1.09779e-013 -1.74931e-014
lhumerus -50.0425 -66.3403 126.745
lradius 60.9623
lwrist 30.8148
lhand -17.1391 13.9673
lfingers 7.12502
lthumb 9.10111 43.7509
rfemur -25.7817 -4.56664 25.8021
rtibia 50.1742
rfoot -35.9806 -1.35881
rtoes -8.98303
lfemur -12.6028 -0.715194 -9.46488
ltibia 52.544
lfoot -41.5504 4.3209
ltoes -20.473
411
root 4.60412 19.0239 38.2424 -5.88373 59.4217 -11.5096
lowerback 9.0147 -3.03398 -3.95256
upperback -2.50791 -4.57906 -0.799327
thorax -7.46416 -2.0717 2.06388
lowerneck -16.9846 -4.50169 -3.41836
upperneck 25.7061 -6.55803 4.64094
head 11.458 -2.6552 1.31544
rclavicle -5.7896e-014 4.77083e-015
rhumerus -40.026 22.7677 -92.1976
rradius 63.7373
rwrist -7.15344
rhand -39.3297 9.54944
rfingers 7.12502
rthumb -12.3216 -20.0675
lclavicle -5.7896e-014 4.77083e-015
lhumerus -49.5617 -65.1959 125.58
lradius 58.6382
lwrist 30.4267
lhand -16.8056 14.2546
lfingers 7.12502
lthumb 9.4229 44.0239
rfemur -25.5404 -4.88087 25.8822
rtibia 49.8392
rfoot -36.0777 -1.65949
rtoes -8.52921
lfemur -12.434 -1.48886 -9.28184
ltibia 51.9586
lfoot -41.625 4.01066
ltoes -20.0634
412
root 4.60401 19.038 38.5697 -6.78566 60.4364 -12.4281
lowerback 8.83256 -3.10722 -4.16379
upperback -2.50219 -4.68872 -0.761061
thorax -7.3273 -2.11888 2.22404
lowerneck -16.8132 -4.75031 -3.65935
upperneck 25.8377 -6.88853 4.78061
head 11.506 -2.80922 1.3602
rclavicle -1.29309e-013 -2.70347e-014
rhumerus -41.1388 22.6785 -92.8502
rradius 64.5616
rwrist -7.16526
rhand -39.301 9.75193
rfingers 7.12502
rthumb -12.2939 -19.8667
lclavicle -1.29309e-013 -2.70347e-014
lhumerus -48.7007 -63.9284 124.123
lradius 56.1517
lwrist 29.8689
lhand -16.5284 14.5373
lfingers 7.12502
lthumb 9.69038 44.2944
rfemur -25.323 -5.22171 25.9561
rtibia 49.4932
rfoot -36.1065 -1.93234
rtoes -8.06543
lfemur -12.3492 -2.23248 -9.09934
ltibia 51.4335
lfoot -41.5693 3.91146
ltoes -19.8565
413
root 4.60434 19.0563 38.8962 -7.70223 61.4052 -13.3788
lowerback 8.66288 -3.16902 -4.36711
upperback -2.50211 -4.78296 -0.734013
thorax -7.20551 -2.15891 2.36615
lowerneck -16.6528 -4.99589 -3.88976
upperneck 25.9713 -7.22307 4.9339
head 11.5591 -2.96205 1.40735
rclavicle -7.5886e-014 -2.06736e-014
rhumerus -42.1854 22.4671 -93.473
rradius 65.2743
rwrist -7.17286
rhand -39.3118 9.92713
rfingers 7.12502
rthumb -12.3043 -19.6909
lclavicle -7.5886e-014 -2.06736e-014
lhumerus -47.5101 -62.5132 122.399
lradius 53.5033
lwrist 29.1359
lhand -16.3725 14.7745
lfingers 7.12502
lthumb 9.84078 44.5245
rfemur -25.1155 -5.57292 26.0375
rtibia 49.1292
rfoot -36.0556 -2.20304
rtoes -7.65408
lfemur -12.3463 -2.89476 -8.90771
ltibia 50.9748
lfoot -41.3674 4.04674
ltoes -19.9066
414
root 4.60498 19.0793 39.2219 -8.66055 62.3421 -14.3711
lowerback 8.52652 -3.22632 -4.56163
upperback -2.50353 -4.87194 -0.715162
thorax -7.10566 -2.19644 2.49581
lowerneck -16.5047 -5.23522 -4.12203
upperneck 26.1087 -7.55402 5.10291
head 11.6184 -3.11115 1.46086
rclavicle -5.77718e-014 3.65764e-014
rhumerus -43.1766 22.1614 -94.0709
rradius 65.8742
rwrist -7.17072
rhand -39.3748 10.0702
rfingers 7.12502
rthumb -12.3651 -19.5442
lclavicle -5.77718e-014 3.65764e-014
lhumerus -46.0036 -60.9019 120.406
lradius 50.7057
lwrist 28.2364
lhand -16.348 15.0239
lfingers 7.12502
lthumb 9.86445 44.7728
rfemur -24.8858 -5.9297 26.1297
rtibia 48.7375
rfoot -35.9307 -2.45131
rtoes -7.26049
lfemur -12.3996 -3.49271 -8.70884
ltibia 50.5857
lfoot -41.0708 4.39711
ltoes -20.2073
415
root 4.60553 19.1057 39.5464 -9.63961 63.2261 -15.4002
lowerback 8.40891 -3.27395 -4.73531
upperback -2.51228 -4.94719 -0.707266
thorax -7.02758 -2.22773 2.60182
lowerneck -16.3698 -5.46546 -4.33821
upperneck 26.2469 -7.87716 5.26974
head 11.6812 -3.25513 1.51174
rclavicle 9.6013e-014 1.11319e-014
rhumerus -44.1096 21.7577 -94.6379
rradius 66.355
rwrist -7.14347
rhand -39.4533 10.2012
rfingers 7.12502
rthumb -12.4407 -19.4085
lclavicle 9.6013e-014 1.11319e-014
lhumerus -44.212 -59.053 118.154
lradius 47.7713
lwrist 27.1925
lhand -16.3956 15.3695
lfingers 7.12502
lthumb 9.81851 45.1206
rfemur -24.6519 -6.24978 26.231
rtibia 48.3156
rfoot -35.7454 -2.64647
rtoes -6.83405
lfemur -12.5033 -4.02003 -8.50456
ltibia 50.2578
lfoot -40.7429 4.83936
ltoes -20.5923
416
root 4.60596 19.1348 39.8697 -10.6597 64.0665 -16.479
lowerback 8.3232 -3.31912 -4.87568
upperback -2.53096 -5.01836 -0.714562
thorax -6.98242 -2.25761 2.67538
lowerneck -16.244 -5.67999 -4.53074
upperneck 26.3881 -8.18533 5.43487
head 11.7466 -3.38993 1.56014
rclavicle 5.3647e-014 4.29375e-014
rhumerus -44.9959 21.2697 -95.1886
rradius 66.7166
rwrist -7.09459
rhand -39.5453 10.3186
rfingers 7.12502
rthumb -12.5294 -19.2857
lclavicle 5.3647e-014 4.29375e-014
lhumerus -42.1772 -56.8928 115.653
lradius 44.7234
lwrist 26.0335
lhand -16.5804 15.82
lfingers 7.12502
lthumb 9.6402 45.5794
rfemur -24.3955 -6.50678 26.342
rtibia 47.8594
rfoot -35.541 -2.7465
rtoes -6.30257
lfemur -12.6348 -4.48324 -8.27853
ltibia 49.9726
lfoot -40.3687 5.29462
ltoes -21.0254
417
root 4.60634 19.1663 40.1917 -11.6993 64.8622 -17.582
lowerback 8.25684 -3.35789 -5.00753
upperback -2.55165 -5.08158 -0.730096
thorax -6.95233 -2.28357 2.73589
lowerneck -16.1253 -5.88183 -4.70759
upperneck 26.5206 -8.47916 5.59585
head 11.8097 -3.51726 1.60637
rclavicle -7.88678e-014 -3.02153e-014
rhumerus -45.8229 20.7141 -95.7015
rradius 66.96
rwrist -7.02708
rhand -39.6374 10.428
rfingers 7.12502
rthumb -12.6182 -19.1709
lclavicle -7.88678e-014 -3.02153e-014
lhumerus -39.9065 -54.3437 112.916
lradius 41.5674
lwrist 24.7854
lhand -16.974 16.2653
lfingers 7.12502
lthumb 9.26047 46.042
rfemur -24.1142 -6.6725 26.4457
rtibia 47.3717
rfoot -35.3497 -2.73367
rtoes -5.61179
lfemur -12.7765 -4.90013 -8.0379
ltibia 49.7075
lfoot -39.9396 5.68849
ltoes -21.4155
418
root 4.60676 19.1996 40.5124 -12.7544 65.6101 -18.7074
lowerback 8.20255 -3.38828 -5.12709
upperback -2.57379 -5.13346 -0.754769
thorax -6.93329 -2.30426 2.77942
lowerneck -16.0087 -6.0733 -4.87203
upperneck 26.6377 -8.76388 5.76353
head 11.8678 -3.63868 1.6543
rclavicle 3.05134e-014 2.8625e-014
rhumerus -46.589 20.0982 -96.1762
rradius 67.097
rwrist -6.97367
rhand -39.7116 10.5046
rfingers 7.12502
rthumb -12.6898 -19.0899
lclavicle 3.05134e-014 2.8625e-014
lhumerus -37.4219 -51.2824 109.945
lradius 38.3107
lwrist 23.3806
lhand -17.5524 16.7512
lfingers 7.12502
lthumb 8.70227 46.5518
rfemur -23.8155 -6.73105 26.5423
rtibia 46.858
rfoot -35.1817 -2.61903
rtoes -4.75917
lfemur -12.9171 -5.2831 -7.78061
ltibia 49.4425
lfoot -39.4642 5.98676
ltoes -21.7101
419
root 4.60715 19.2338 40.8316 -13.8103 66.3107 -19.8419
lowerback 8.15681 -3.40973 -5.23416
upperback -2.59713 -5.17322 -0.791572
thorax -6.92346 -2.31942 2.80246
lowerneck -15.8923 -6.25571 -5.02925
upperneck 26.738 -9.04293 5.9487
head 11.921 -3.75497 1.7083
rclavicle 1.17556e-013 2.54444e-014
rhumerus -47.2913 19.4287 -96.6139
rradius 67.1311
rwrist -6.95163
rhand -39.7501 10.5604
rfingers 7.12502
rthumb -12.7269 -19.0318
lclavicle 1.17556e-013 2.54444e-014
lhumerus -34.762 -47.5708 106.758
lradius 34.9655
lwrist 21.7256
lhand -18.3371 17.2616
lfingers 7.12502
lthumb 7.94496 47.0923
rfemur -23.5134 -6.68014 26.6271
rtibia 46.3308
rfoot -35.0427 -2.42411
rtoes -3.74763
lfemur -13.052 -5.62636 -7.50866
ltibia 49.1625
lfoot -38.9402 6.17396
ltoes -21.8959
420
root 4.60752 19.2683 41.1492 -14.847 66.9651 -20.9637
lowerback 8.11684 -3.42283 -5.33594
upperback -2.61964 -5.20223 -0.841575
thorax -6.91856 -2.32958 2.80777
lowerneck -15.7798 -6.42953 -5.17818
upperneck 26.8216 -9.31812 6.15477
head 11.9702 -3.86634 1.76911
rclavicle -2.64632e-014 4.77083e-015
rhumerus -47.9272 18.7279 -97.0194
rradius 67.0701
rwrist -6.98598
rhand -39.76 10.5808
rfingers 7.12502
rthumb -12.7365 -19.0108
lclavicle -2.64632e-014 4.77083e-015
lhumerus -31.9766 -43.0084 103.364
lradius 31.5576
lwrist 19.6158
lhand -19.3334 17.6905
lfingers 7.12502
lthumb 6.98329 47.5553
rfemur -23.2193 -6.52663 26.6943
rtibia 45.8053
rfoot -34.9263 -2.17439
rtoes -2.64027
lfemur -13.1753 -5.9285 -7.23136
ltibia 48.8591
lfoot -38.3794 6.26348
ltoes -21.9891
421
root 4.60803 19.3027 41.4653 -15.8827 67.5733 -22.0914
lowerback 8.08121 -3.42947 -5.42015
upperback -2.6402 -5.2215 -0.903152
thorax -6.91741 -2.33582 2.7903
lowerneck -15.6743 -6.59469 -5.31567
upperneck 26.8925 -9.58874 6.37648
head 12.0173 -3.97266 1.83431
rclavicle 3.44891e-014 -3.02153e-014
rhumerus -48.4998 18.013 -97.4014
rradius 66.9206
rwrist -7.08246
rhand -39.7482 10.5511
rfingers 7.12502
rthumb -12.7251 -19.0412
lclavicle 3.44891e-014 -3.02153e-014
lhumerus -29.1673 -37.4022 99.8023
lradius 28.1447
lwrist 16.825
lhand -20.5697 18.0333
lfingers 7.12502
lthumb 5.7898 47.9342
rfemur -22.9401 -6.2738 26.7528
rtibia 45.2961
rfoot -34.8096 -1.91751
rtoes -1.54355
lfemur -13.2821 -6.19832 -6.94085
ltibia 48.53
lfoot -37.8026 6.27035
ltoes -21.9935
422
root 4.60874 19.3369 41.7802 -16.9262 68.1541 -23.2258
lowerback 8.0551 -3.43805 -5.49753
upperback -2.65298 -5.24322 -0.971483
thorax -6.91442 -2.34385 2.76266
lowerneck -15.589 -6.7492 -5.45124
upperneck 26.9554 -9.84942 6.61504
head 12.0669 -4.07193 1.90643
rclavicle -7.56624e-015 3.18055e-015
rhumerus -49.0088 17.3219 -97.7624
rradius 66.6951
rwrist -7.27465
rhand -39.7034 10.4827
rfingers 7.12502
rthumb -12.6819 -19.1123
lclavicle -7.56624e-015 3.18055e-015
lhumerus -26.4826 -30.6367 96.1346
lradius 24.8497
lwrist 13.1618
lhand -22.0348 18.3113
lfingers 7.12502
lthumb 4.37514 48.2461
rfemur -22.6667 -5.93324 26.7968
rtibia 44.8114
rfoot -34.6757 -1.65277
rtoes -0.500514
lfemur -13.3642 -6.45652 -6.64268
ltibia 48.1711
lfoot -37.2195 6.23174
ltoes -21.9414
423
root 4.60963 19.3707 42.0932 -17.9553 68.6932 -24.3614
lowerback 8.02605 -3.44643 -5.54723
upperback -2.66563 -5.26204 -1.05091
thorax -6.91323 -2.35183 2.70758
lowerneck -15.5212 -6.8906 -5.56548
upperneck 27.0118 -10.0965 6.8517
head 12.1164 -4.16293 1.97596
rclavicle 6.95995e-014 0
rhumerus -49.4575 16.6666 -98.1117
rradius 66.3969
rwrist -7.55905
rhand -39.6323 10.3761
rfingers 7.12502
rthumb -12.6133 -19.2231
lclavicle 6.95995e-014 0
lhumerus -24.1238 -22.7751 92.445
lradius 21.8572
lwrist 8.64476
lhand -23.7654 18.6437
lfingers 7.12502
lthumb 2.70395 48.6063
rfemur -22.4219 -5.50723 26.8269
rtibia 44.3547
rfoot -34.4865 -1.38249
rtoes 0.458803
lfemur -13.4355 -6.70843 -6.33924
ltibia 47.781
lfoot -36.6504 6.19742
ltoes -21.8715
